# xmcd CD database file
# Copyright (C) 1993-1998 Ti Kan
#
# Track frame offsets:
#  180
#  17337
#  31373
#  52391
#  72201
#  87600
#  106634
#  125577
#  137372
#  153641
#
# Disc length: 2333 seconds
#
# Revision: 1
# Processed by: cddbd v1.4b41PL1 Copyright (c) Steve Scherf et al.
# Submitted via: KiC 2.1 - (C) 1996-1998 Alwin Hoogerdijk
#
DISCID=82091b0a
DTITLE=Garry and The Moodswingers - Go Fever
DYEAR=1900
DGENRE=
TTITLE0=Too Close To Crying
TTITLE1=Go Fever
TTITLE2=Do You Mean It
TTITLE3=I've Seen What Lonliness Can Do
TTITLE4=Rich Poverty
TTITLE5=Are You Going (Where I'm Coming From)
TTITLE6=Hungry Women
TTITLE7=Cartwheels
TTITLE8=Too Loose To Matter
TTITLE9=Leave Me Blue
EXTD=
EXTT0=
EXTT1=
EXTT2=
EXTT3=
EXTT4=
EXTT5=
EXTT6=
EXTT7=
EXTT8=
EXTT9=
PLAYORDER=
